<?xml version="1.0" encoding="utf-8"?>
<!-- Generator: Adobe Illustrator 24.3.0, SVG Export Plug-In . SVG Version: 6.00 Build 0)  -->
<svg version="1.1" id="Layer_1" xmlns="http://www.w3.org/2000/svg" xmlns:xlink="http://www.w3.org/1999/xlink" x="0px" y="0px"
	 viewBox="0 0 3360 1200" style="enable-background:new 0 0 3360 1200;" xml:space="preserve">
<style type="text/css">
	.st0{display:none;fill:#000734;}
	.st1{fill:#000734;}
	.st2{fill:#564FAF;}
	.st3{display:none;fill:#FFCA17;}
	.st4{display:none;fill:#A579F6;}
	.st5{display:none;fill:#00D1F7;}
	.st6{display:none;fill:#33FADB;}
	.st7{fill:#FFFFFF;}
	.st8{fill:#34FADC;}
	.st9{display:none;}
	.st10{display:inline;fill:none;}
	.st11{display:inline;fill:none;stroke:#FFCA17;stroke-width:10;stroke-miterlimit:10;}
	.st12{display:inline;fill:#FFCA17;}
	.st13{display:inline;}
	.st14{fill:none;}
</style>
<rect class="st0" width="3360" height="1200"/>
<g>
	<path class="st7" d="M916.39,324.97h221.73c1.28,0.16,1.92,0.8,1.92,1.92c-5.12,55.04-8.64,82.55-10.56,82.55h-125.74
		c-3.2,25.92-4.8,40.64-4.8,44.15h106.55c1.28,0.16,1.92,0.8,1.92,1.92c0,5.6-2.88,31.52-8.64,77.75H991.27
		c-1.6,0-3.84,17.92-6.72,53.75c-2.88,26.88-5.44,40.32-7.68,40.32l-97.91,24c0-0.64-0.32-0.96-0.96-0.96l36.47-324.44
		L916.39,324.97z M991.27,640.77c-0.96,18.56-2.56,27.84-4.8,27.84h-95.99v-3.84c0-1.92,33.27-10.24,99.83-24.96
		C990.94,639.81,991.27,640.13,991.27,640.77z"/>
	<path class="st7" d="M1266.03,402.72c0,0.64,0.32,0.96,0.96,0.96c-0.64,2.56-7.04,59.19-19.2,169.9h135.34v0.96
		c-5.44,62.71-9.28,94.07-11.52,94.07h-230.37c-1.28,0-1.92-0.64-1.92-1.92c16.64-155.5,25.59-235.81,26.88-240.93L1266.03,402.72z
		 M1290.03,324.97c1.28,0.16,1.92,0.8,1.92,1.92c-3.04,35.2-5.28,52.79-6.72,52.79l-98.87,24.96l-0.96-1.92
		c5.12-50.23,8.32-76.15,9.6-77.75H1290.03z"/>
	<path class="st7" d="M1623.58,324.97c1.6,0,7.36,25.92,17.28,77.75c19.2,87.67,31.68,147.18,37.43,178.54
		c-61.59,17.28-104.15,28.16-127.66,32.64h-55.67c-1.92,13.44-8,20.16-18.24,20.16c-34.08,9.6-53.6,14.4-58.55,14.4h-34.56
		c2.08-6.88,36.63-87.83,103.67-242.85c21.12-49.11,32.95-75.99,35.51-80.63H1623.58z M1559.27,441.11
		c-1.28,4.64-12.16,34.08-32.64,88.31h47.03c-1.92-8.8-6.4-38.23-13.44-88.31H1559.27z M1665.82,600.45c1.28,0,6.4,22.4,15.36,67.19
		l-1.92,0.96h-106.55c-1.76,0-3.68-14.4-5.76-43.19C1569.99,624.13,1602.95,615.81,1665.82,600.45z"/>
	<path class="st7" d="M1903.15,474.71v0.96c-39.04,119.5-60.15,183.5-63.35,191.98l-1.92,0.96h-70.07c-1.76,0-3.68-14.4-5.76-43.19
		c-0.64-1.28-4.48-35.52-11.52-102.71h-0.96c-9.6,95.35-15.04,143.02-16.32,143.02h-79.67c-1.28,0-1.92-0.64-1.92-1.92
		c8.96-86.07,14.08-130.54,15.36-133.42c15.2-3.2,66.07-15.36,152.62-36.47l0.96,1.92v6.72h1.92c0-8.96,6.4-13.44,19.2-13.44
		C1878.03,479.51,1898.51,474.71,1903.15,474.71z M1799.48,324.97c2.4,0,5.6,24.64,9.6,73.91c0.64,0,3.52,25.28,8.64,75.83
		c0,1.12-23.36,7.2-70.07,18.24c-0.64-1.28-1.6-9.28-2.88-24h-0.96c-0.96,17.92-3.2,26.88-6.72,26.88l-80.63,20.16
		c0-0.64-0.32-0.96-0.96-0.96c13.44-122.7,20.79-186.05,22.08-190.06H1799.48z M2002.97,324.97c1.28,0.16,1.92,0.8,1.92,1.92
		c-7.04,68.47-11.2,103.67-12.48,105.59c-1.92,0-55.04,13.12-159.34,39.36v-0.96c29.43-92.63,45.43-141.26,47.99-145.9H2002.97z
		 M1990.5,454.55c-14.72,142.7-22.72,214.05-24,214.05h-79.67c-1.28,0-1.92-0.64-1.92-1.92c13.44-129.26,20.79-193.89,22.08-193.89
		c53.43-12.8,81.27-19.2,83.51-19.2V454.55z"/>
	<path class="st8" d="M2032.25,330.73h94.07c1.28,0.16,1.92,0.8,1.92,1.92c-14.08,130.38-21.44,196.29-22.08,197.73
		c-0.96,0.64-34.24,8.96-99.83,24.96c0-0.64-0.32-0.96-0.96-0.96c15.36-140.78,23.67-215.01,24.96-222.69L2032.25,330.73z
		 M2122.48,541.9l0.96,1.92c-8.32,81.11-13.12,122.71-14.4,124.78h-96.95v-0.96c6.08-68.47,10.24-102.71,12.48-102.71L2122.48,541.9
		z"/>
	<path class="st7" d="M2434.44,443.99v0.96c-0.64,2.08-8.96,76.31-24.96,222.69l-1.92,0.96h-87.35
		c-2.88-2.08-17.6-32.79-44.15-92.15c-1.12-0.48-12.64-24.48-34.56-71.99c-1.6,0-4.16,20.48-7.68,61.43
		c-7.04,61.11-11.2,95.35-12.48,102.71h-90.23c-1.28,0-1.92-0.64-1.92-1.92c10.24-99.02,16-150.54,17.28-154.54
		c116.62-28.16,175.82-42.23,177.58-42.23c3.84,6.24,7.36,13.6,10.56,22.08h0.96c0-17.92,2.24-26.88,6.72-26.88
		C2399.56,451.04,2430.28,443.99,2434.44,443.99z M2272.22,324.97c1.44,0.48,11.68,20.96,30.72,61.43l29.76,65.27
		c-2.24,1.28-57.59,15.36-166.06,42.23l-0.96-1.92c11.52-111.35,17.92-167.02,19.2-167.02H2272.22z M2462.28,324.97
		c1.28,0.16,1.92,0.8,1.92,1.92c-6.56,63.99-10.4,95.99-11.52,95.99c-1.92,0-33.28,7.68-94.07,23.04c0-0.64-0.32-0.96-0.96-0.96
		c8.32-77.43,13.12-117.42,14.4-119.98H2462.28z"/>
	<path class="st7" d="M2658.81,324.97h-29.76c-65.59,0-114.22,35.2-145.9,105.58v0.96c176.62-42.87,264.93-64.94,264.93-66.23
		C2732.4,338.41,2702.64,324.97,2658.81,324.97z M2765.36,462.23h-143.02c-1.77,0-4.96,26.88-9.6,80.63v0.96h57.59
		c-1.28,11.52-1.92,18.56-1.92,21.12c-20.48,12.16-37.12,18.24-49.91,18.24h-10.56c-2.56,0-6.72-0.64-12.48-1.92
		c-21.76-7.2-32.64-27.36-32.64-60.48v-4.8c0-13.59,1.6-29.59,4.8-47.99c5.92-25.11,13.6-41.43,23.04-48.95l-0.96-1.92
		c-75.67,17.92-114.07,27.51-115.19,28.79c-7.04,23.68-10.55,48.96-10.55,75.83v8.64c0,16.96,3.19,36.16,9.59,57.59
		c20.32,53.76,58.71,80.63,115.19,80.63h24c43.19,0,88.94-18.23,137.26-54.71l17.28-150.7L2765.36,462.23z"/>
	<path class="st8" d="M2769.2,420l-95.99,20.15l-5.76-17.27c0-4.48-5.44-10.88-16.32-19.2c0-1.6,17.6-6.08,52.79-13.44
		c7.36-2.56,25.92-7.04,55.68-13.44C2766,396,2769.2,410.4,2769.2,420z"/>
	<path class="st7" d="M2935.5,324.97h20.16c54.71,0,91.19,23.04,109.43,69.11c7.68,19.04,11.52,42.08,11.52,69.11v0.96
		c0,26.88-2.24,40.32-6.72,40.32l-97.91,24.96l-0.96-1.92c4.48-22.4,6.72-41.59,6.72-57.59v-2.88c0-29.43-10.24-47.67-30.72-54.71
		c-4.48-1.28-8.32-1.92-11.52-1.92h-5.76c-31.84,0-51.68,26.88-59.51,80.63c-1.28,11.52-1.92,21.44-1.92,29.76v4.8
		c0,8.16,0.96,17.44,2.88,27.84c-1.12,1.28-33.12,9.6-95.99,24.96c-3.84-11.2-5.76-25.92-5.76-44.15v-8.64
		c0-63.03,18.56-116.15,55.67-159.34c25.92-23.68,46.71-35.52,62.39-35.52C2902.06,326.89,2918.06,324.97,2935.5,324.97z
		 M3069.88,521.74c0,0.64,0.32,0.96,0.96,0.96c-11.2,49.59-27.84,84.47-49.91,104.63c-24.8,27.52-59.99,41.27-105.59,41.27h-20.16
		c-30.4,0-58.23-8-83.51-24c-18.88-21.12-29.76-38.71-32.64-52.79c64.47-16,97.75-24,99.83-24c7.68,10.88,18.56,16.32,32.64,16.32
		h3.84c22.4,0,39.03-12.48,49.91-37.44L3069.88,521.74z"/>
</g>
<g>
	<path class="st7" d="M396.02,657.16l251.64-91.72c0,0,18.81-63.5,11.76-84.66c-7.06-21.17-11.76-35.28-32.92-63.5
		c-21.17-28.22-65.85-68.2-72.9-87.02c-7.06-18.81,4.7-49.39,4.7-49.39l7.06,4.7c0,0,9.41,35.28,42.33,35.28
		c0,0-18.81-18.81,2.35-32.92c21.17-14.11,32.92,16.46,32.92,16.46s18.38-11.76,10.37-23.52c-8.01-11.76-33.88-47.04-71.51-42.33
		c-37.63,4.7-68.2,37.63-68.2,61.15c0,23.52,4.7,47.04,35.28,84.66s49.39,96.42,44.68,108.18c-42.33-39.98-120.5-54.12-166.97-37.63
		c-72.9,25.87-141.19,68.2-125.86,202.25l48.25-30.57c0,0-39.98,51.74,18.81,136.4L396.02,657.16z"/>
	<polygon class="st8" points="504.2,673.62 504.2,883.19 534.51,883.19 534.51,649.06 	"/>
	<path class="st8" d="M619.44,344.37c0,0,9.41,11.76,9.41,25.87c0,14.11,2.35,21.17,4.7,21.17c2.35,0,23.52-16.46,21.17-54.09
		c0,0-2.35,16.46-16.46,11.76C624.14,344.37,619.44,344.37,619.44,344.37z"/>
</g>
<g>
	<path class="st8" d="M925.71,751.26l-0.4,2.15l-11.17,1.08l0.44-2.37c0.96-5.16-0.53-7.53-4.51-7.53c-3.33,0-6.04,1.83-6.84,6.13
		l-0.3,1.61c-0.78,4.19,0.72,7.63,6.88,14.41c8.36,9.35,10.65,15.48,9.03,24.19l-0.68,3.66c-2.07,11.07-10.14,16.88-20.57,16.88
		c-10.54,0-16.49-6.13-14.42-17.2l0.92-4.95l11.17-1.08l-0.96,5.16c-0.94,5.05,0.96,7.53,5.04,7.53c3.44,0,6.58-1.83,7.58-7.2
		l0.44-2.37c0.88-4.73-0.62-8.17-6.78-14.95c-8.36-9.35-10.66-15.48-9.13-23.65l0.34-1.83c2.07-11.07,9.6-16.88,20.14-16.88
		S927.77,740.19,925.71,751.26z"/>
	<path class="st8" d="M978.25,745.67l-3.98,21.29h16.67l-1.97,10.54H972.3l-4.18,22.36h20.64l-1.97,10.54h-32.04l14.06-75.26h32.04
		l-1.97,10.54H978.25z"/>
	<path class="st8" d="M1050.26,778.57h-5.27l-5.94,31.83h-11.4l14.06-75.26h16.45c12.26,0,17.68,6.67,15.37,19.03l-1,5.38
		c-1.49,7.96-5.32,13.55-11.16,16.56l4.02,34.3h-12.04L1050.26,778.57z M1046.96,768.04h4.62c5.48,0,8.5-2.9,9.68-9.25l0.72-3.87
		c1.18-6.34-0.75-9.25-6.23-9.25h-4.62L1046.96,768.04z"/>
	<path class="st8" d="M1113.45,810.4l1.37-75.26h11.61l-2.23,57.41h0.21l19.11-57.41h11.4l-26.74,75.26H1113.45z"/>
	<path class="st8" d="M1204.77,745.67l-3.98,21.29h16.67l-1.97,10.54h-16.67l-4.18,22.36h20.64l-1.97,10.54h-32.04l14.06-75.26
		h32.04l-1.97,10.54H1204.77z"/>
	<path class="st8" d="M1276.79,778.57h-5.27l-5.94,31.83h-11.4l14.06-75.26h16.45c12.26,0,17.68,6.67,15.37,19.03l-1,5.38
		c-1.49,7.96-5.32,13.55-11.16,16.56l4.02,34.3h-12.04L1276.79,778.57z M1273.49,768.04h4.62c5.48,0,8.5-2.9,9.68-9.25l0.72-3.87
		c1.18-6.34-0.75-9.25-6.23-9.25h-4.62L1273.49,768.04z"/>
	<path class="st8" d="M1364.88,799.64l-2.01,10.75h-30.43l14.06-75.26h11.4l-12.05,64.51H1364.88z"/>
	<path class="st8" d="M1425.92,745.67l-3.98,21.29h16.67l-1.97,10.54h-16.67l-4.18,22.36h20.64l-1.97,10.54h-32.04l14.06-75.26
		h32.04l-1.97,10.54H1425.92z"/>
	<path class="st8" d="M1517.87,751.26l-0.4,2.15l-11.17,1.08l0.44-2.37c0.96-5.16-0.53-7.53-4.51-7.53c-3.33,0-6.04,1.83-6.84,6.13
		l-0.3,1.61c-0.78,4.19,0.72,7.63,6.88,14.41c8.36,9.35,10.65,15.48,9.03,24.19l-0.68,3.66c-2.07,11.07-10.14,16.88-20.57,16.88
		c-10.54,0-16.49-6.13-14.42-17.2l0.92-4.95l11.17-1.08l-0.96,5.16c-0.94,5.05,0.96,7.53,5.04,7.53c3.44,0,6.58-1.83,7.58-7.2
		l0.44-2.37c0.88-4.73-0.62-8.17-6.78-14.95c-8.36-9.35-10.66-15.48-9.13-23.65l0.34-1.83c2.07-11.07,9.6-16.88,20.14-16.88
		S1519.94,740.19,1517.87,751.26z"/>
	<path class="st8" d="M1588.51,751.26l-0.4,2.15l-11.17,1.08l0.44-2.37c0.96-5.16-0.53-7.53-4.51-7.53c-3.33,0-6.04,1.83-6.84,6.13
		l-0.3,1.61c-0.78,4.19,0.72,7.63,6.88,14.41c8.36,9.35,10.65,15.48,9.03,24.19l-0.68,3.66c-2.07,11.07-10.14,16.88-20.57,16.88
		c-10.54,0-16.49-6.13-14.42-17.2l0.92-4.95l11.17-1.08l-0.96,5.16c-0.94,5.05,0.96,7.53,5.04,7.53c3.44,0,6.58-1.83,7.58-7.2
		l0.44-2.37c0.88-4.73-0.62-8.17-6.78-14.95c-8.36-9.35-10.66-15.48-9.13-23.65l0.34-1.83c2.07-11.07,9.6-16.88,20.14-16.88
		S1590.58,740.19,1588.51,751.26z"/>
	<path class="st7" d="M1709.67,751.26l-0.4,2.15l-11.17,1.08l0.44-2.37c0.96-5.16-0.53-7.53-4.51-7.53c-3.33,0-6.04,1.83-6.84,6.13
		l-0.3,1.61c-0.78,4.19,0.72,7.63,6.88,14.41c8.36,9.35,10.65,15.48,9.03,24.19l-0.68,3.66c-2.07,11.07-10.14,16.88-20.57,16.88
		c-10.54,0-16.49-6.13-14.42-17.2l0.92-4.95l11.17-1.08l-0.96,5.16c-0.94,5.05,0.96,7.53,5.05,7.53c3.44,0,6.58-1.83,7.58-7.2
		l0.44-2.37c0.88-4.73-0.62-8.17-6.78-14.95c-8.36-9.35-10.66-15.48-9.13-23.65l0.34-1.83c2.07-11.07,9.6-16.88,20.14-16.88
		S1711.74,740.19,1709.67,751.26z"/>
	<path class="st7" d="M1762.21,745.67l-3.98,21.29h16.67l-1.97,10.54h-16.67l-4.18,22.36h20.64l-1.97,10.54h-32.04l14.06-75.26
		h32.04l-1.97,10.54H1762.21z"/>
	<path class="st7" d="M1834.23,778.57h-5.27l-5.94,31.83h-11.4l14.06-75.26h16.45c12.26,0,17.68,6.67,15.37,19.03l-1,5.38
		c-1.49,7.96-5.32,13.55-11.16,16.56l4.02,34.3h-12.04L1834.23,778.57z M1830.93,768.04h4.62c5.48,0,8.5-2.9,9.68-9.25l0.72-3.87
		c1.19-6.34-0.75-9.25-6.23-9.25h-4.62L1830.93,768.04z"/>
	<path class="st7" d="M1897.42,810.4l1.37-75.26h11.61l-2.23,57.41h0.22l19.11-57.41h11.4l-26.74,75.26H1897.42z"/>
	<path class="st7" d="M1965.25,810.4l14.06-75.26h11.4l-14.06,75.26H1965.25z"/>
	<path class="st7" d="M2066.12,752.12l-1.26,6.77l-11.07,0.54l1.14-6.13c1.12-6.02-0.63-8.71-4.83-8.71s-6.95,2.69-7.88,7.63
		l-7.67,41.07c-0.92,4.95,0.83,7.63,5.03,7.63s6.95-2.69,8.08-8.71l1.57-8.39l10.87,0.54l-1.69,9.03
		c-2.13,11.4-9.93,18.06-21.11,18.06c-11.07,0-16.28-6.67-14.15-18.06l7.71-41.29c2.13-11.4,9.82-18.06,20.9-18.06
		C2062.94,734.06,2068.25,740.73,2066.12,752.12z"/>
	<path class="st7" d="M2120.65,745.67l-3.98,21.29h16.67l-1.97,10.54h-16.67l-4.18,22.36h20.64l-1.97,10.54h-32.04l14.06-75.26
		h32.04l-1.97,10.54H2120.65z"/>
	<path class="st7" d="M2212.61,751.26l-0.4,2.15l-11.17,1.08l0.44-2.37c0.96-5.16-0.53-7.53-4.51-7.53c-3.33,0-6.04,1.83-6.84,6.13
		l-0.3,1.61c-0.78,4.19,0.72,7.63,6.88,14.41c8.36,9.35,10.65,15.48,9.03,24.19l-0.68,3.66c-2.07,11.07-10.14,16.88-20.57,16.88
		c-10.54,0-16.49-6.13-14.42-17.2l0.92-4.95l11.17-1.08l-0.96,5.16c-0.94,5.05,0.96,7.53,5.05,7.53c3.44,0,6.58-1.83,7.58-7.2
		l0.44-2.37c0.88-4.73-0.62-8.17-6.78-14.95c-8.36-9.35-10.66-15.48-9.13-23.65l0.34-1.83c2.07-11.07,9.6-16.88,20.14-16.88
		S2214.67,740.19,2212.61,751.26z"/>
	<path class="st7" d="M2330.15,810.4l9.76-52.25h-0.21l-17.21,41.5h-6.77l-1.71-41.5h-0.21l-9.76,52.25h-10.75l14.06-75.26h14.94
		l1.37,40.43h0.21l16.37-40.43h15.37l-14.06,75.26H2330.15z"/>
	<path class="st7" d="M2410.89,810.4l0.72-17.1h-12.58l-5.67,17.1h-11.4l27.06-75.26h14.51l-1.05,75.26H2410.89z M2402.46,782.98
		h9.57l1.3-31.72h-0.32L2402.46,782.98z"/>
	<path class="st7" d="M2488.83,810.4l-5.63-49.89h-0.21l-9.32,49.89h-10.75l14.06-75.26h12.69l5.07,44.83h0.21l8.37-44.83h10.75
		l-14.06,75.26H2488.83z"/>
	<path class="st7" d="M2569.36,810.4l0.72-17.1h-12.58l-5.67,17.1h-11.4l27.06-75.26h14.51l-1.05,75.26H2569.36z M2560.93,782.98
		h9.57l1.3-31.72h-0.32L2560.93,782.98z"/>
	<path class="st7" d="M2666.25,752.12l-0.96,5.16l-11.07,0.54l0.84-4.52c1.12-6.02-0.63-8.71-5.04-8.71s-7.17,2.69-8.09,7.63
		l-7.67,41.07c-0.92,4.95,0.73,7.63,5.13,7.63s7.06-2.69,8.18-8.71l2.41-12.9h-6.45l1.97-10.54h17.63l-4.6,24.62
		c-2.13,11.4-9.93,18.06-21.33,18.06c-11.29,0-16.5-6.67-14.37-18.06l7.71-41.29c2.13-11.4,9.82-18.06,21.11-18.06
		C2663.06,734.06,2668.38,740.73,2666.25,752.12z"/>
	<path class="st7" d="M2721.85,745.67l-3.98,21.29h16.67l-1.97,10.54h-16.67l-4.18,22.36h20.64l-1.97,10.54h-32.04l14.06-75.26
		h32.04l-1.97,10.54H2721.85z"/>
	<path class="st7" d="M2809.21,810.4l9.76-52.25h-0.21l-17.21,41.5h-6.77l-1.71-41.5h-0.21l-9.76,52.25h-10.75l14.06-75.26h14.94
		l1.37,40.43h0.21l16.37-40.43h15.37l-14.06,75.26H2809.21z"/>
	<path class="st7" d="M2888.6,745.67l-3.98,21.29h16.67l-1.97,10.54h-16.67l-4.18,22.36h20.64l-1.97,10.54h-32.04l14.06-75.26h32.04
		l-1.97,10.54H2888.6z"/>
	<path class="st7" d="M2964.99,810.4l-5.63-49.89h-0.21l-9.32,49.89h-10.75l14.06-75.26h12.69l5.07,44.83h0.21l8.37-44.83h10.75
		l-14.06,75.26H2964.99z"/>
	<path class="st7" d="M3051.22,745.89l-12.05,64.51h-11.4l12.05-64.51h-12.15l2.01-10.75h35.69l-2.01,10.75H3051.22z"/>
</g>
</svg>
